<svg width="52" height="52" viewBox="0 0 52 52" fill="none" xmlns="http://www.w3.org/2000/svg">
<circle cx="26" cy="26" r="26" fill="#17313B" style="fill:#17313B;fill:color(display-p3 0.0902 0.1922 0.2314);fill-opacity:1;"/>
<path d="M33.8163 32.1224C32.2857 33.3469 30.1429 34.2653 28 34.2653C23.102 34.2653 19.7347 30.5918 19.7347 25.6939C19.7347 20.7959 23.102 17.4286 28 17.4286C30.1429 17.4286 32.2857 18.0408 33.8163 19.5714L34.7347 20.4898L39.6327 15.898L38.4082 14.9796C35.6531 12.5306 31.9796 11 28 11C19.4286 11 13 17.4286 13 26C13 34.5714 19.4286 41 28 41C31.9796 41 35.6531 39.4694 38.4082 37.0204L39.6327 36.102L34.7347 31.2041L33.8163 32.1224Z" fill="white" style="fill:white;fill-opacity:1;"/>
<path d="M27.6948 30.898C30.3999 30.898 32.5928 28.7051 32.5928 26C32.5928 23.2949 30.3999 21.1021 27.6948 21.1021C24.9898 21.1021 22.7969 23.2949 22.7969 26C22.7969 28.7051 24.9898 30.898 27.6948 30.898Z" fill="#EF4335" style="fill:#EF4335;fill:color(display-p3 0.9373 0.2627 0.2078);fill-opacity:1;"/>
</svg>
