<svg width="48" height="48" viewBox="0 0 48 48" fill="none" xmlns="http://www.w3.org/2000/svg">
<rect width="48" height="48" rx="24" fill="#020202" style="fill:#020202;fill:color(display-p3 0.0078 0.0078 0.0078);fill-opacity:1;"/>
<path d="M30.7609 37H35.841L29.857 27.1229C31.6042 26.32 33.0253 24.9446 33.8851 23.2242C34.7449 21.5038 34.992 19.5414 34.5855 17.6614C34.1791 15.7815 33.1434 14.0966 31.6498 12.8853C30.1561 11.6741 28.2939 11.009 26.3711 11H12.1591L14.7092 15.2091H26.3711C27.4909 15.2091 28.5649 15.6541 29.3567 16.4462C30.1486 17.2382 30.5934 18.3125 30.5934 19.4327C30.5934 20.5528 30.1486 21.6271 29.3567 22.4192C28.5649 23.2112 27.4909 23.6562 26.3711 23.6562H15.8124L18.3626 27.9029H25.2159L30.7609 37Z" fill="white" style="fill:white;fill-opacity:1;"/>
<path d="M12.9468 31.7974H18.1453V36.9974H12.9468V31.7974Z" fill="#E70000" style="fill:#E70000;fill:color(display-p3 0.9059 0.0000 0.0000);fill-opacity:1;"/>
</svg>
