<svg width="26" height="26" viewBox="0 0 26 26" fill="none" xmlns="http://www.w3.org/2000/svg">
<path d="M15.771 11.1006C15.6895 11.1006 15.6112 11.0693 15.5521 11.0131C15.4931 10.957 15.4579 10.8803 15.4538 10.7989C15.3999 9.71998 14.8916 9.19164 13.8541 9.13583C13.7715 9.12925 13.6946 9.09064 13.64 9.02823C13.5854 8.96582 13.5574 8.88455 13.5619 8.80175C13.5664 8.71895 13.603 8.64118 13.664 8.58502C13.725 8.52886 13.8055 8.49876 13.8884 8.50114C15.2574 8.57656 16.0184 9.35832 16.0885 10.7672C16.0906 10.8089 16.0845 10.8506 16.0704 10.89C16.0564 10.9293 16.0347 10.9654 16.0067 10.9964C15.9787 11.0274 15.9449 11.0525 15.9071 11.0704C15.8694 11.0883 15.8285 11.0985 15.7868 11.1006H15.771Z" fill="white" style="fill:white;fill-opacity:1;"/>
<path d="M17.3948 11.6474H17.4023C17.4855 11.6472 17.5653 11.6145 17.6247 11.5562C17.684 11.4979 17.7182 11.4187 17.7199 11.3356C17.7478 10.0945 17.368 9.03778 16.6044 8.20247C15.8407 7.36715 14.7667 6.89312 13.4117 6.79394C13.3275 6.78779 13.2443 6.81534 13.1804 6.87054C13.1165 6.92574 13.0771 7.00406 13.071 7.08828C13.0648 7.17249 13.0924 7.2557 13.1476 7.3196C13.2028 7.3835 13.2811 7.42285 13.3653 7.429C14.5694 7.51725 15.4726 7.90945 16.1356 8.63276C16.7986 9.35607 17.1089 10.2359 17.0844 11.3224C17.0825 11.4066 17.1141 11.4882 17.1723 11.5491C17.2305 11.6101 17.3105 11.6454 17.3948 11.6474Z" fill="white" style="fill:white;fill-opacity:1;"/>
<path d="M19.0718 12.2998C18.988 12.2997 18.9075 12.2665 18.848 12.2074C18.7884 12.1483 18.7546 12.0681 18.7539 11.9842C18.7392 10.0409 18.1796 8.55657 17.043 7.44709C15.9199 6.35346 14.5012 5.79231 12.8257 5.78024C12.7839 5.78009 12.7426 5.77172 12.7041 5.75561C12.6656 5.73949 12.6306 5.71595 12.6012 5.68633C12.5418 5.62649 12.5086 5.54551 12.5089 5.4612C12.5092 5.37688 12.543 5.29614 12.6028 5.23673C12.6626 5.17733 12.7436 5.14412 12.8279 5.14442H12.8306C14.6754 5.158 16.242 5.77949 17.4868 6.99229C18.7317 8.2051 19.3735 9.88628 19.3901 11.9804C19.3907 12.0647 19.3579 12.1457 19.2988 12.2057C19.2396 12.2658 19.1591 12.2999 19.0749 12.3006L19.0718 12.2998Z" fill="white" style="fill:white;fill-opacity:1;"/>
<path d="M14.6215 14.782C14.3809 15.0784 13.934 15.0407 13.934 15.0407C10.6678 14.2069 9.79369 10.8985 9.79369 10.8985C9.79369 10.8985 9.75447 10.4516 10.0524 10.211L10.6426 9.74185C10.9352 9.51633 11.1219 8.96914 10.824 8.43477C10.5955 8.03365 10.347 7.64423 10.0795 7.26797C9.81971 6.9131 9.21444 6.1864 9.21217 6.18413C8.92029 5.83983 8.49113 5.75988 8.03859 5.99558C8.03722 5.99558 8.03534 5.99619 8.03353 5.99677C8.03186 5.99732 8.03025 5.99784 8.02916 5.99784C7.57907 6.25717 7.17322 6.58664 6.82691 6.97382C6.82573 6.97618 6.82455 6.97731 6.82337 6.97844C6.82229 6.97947 6.82121 6.98051 6.82012 6.98249C6.54056 7.31988 6.38053 7.65062 6.34005 7.97468C6.33165 8.02247 6.32874 8.07105 6.33138 8.1195C6.32988 8.2626 6.35166 8.405 6.39587 8.54111L6.41133 8.55167C6.55237 9.05248 6.90535 9.88666 7.67241 11.2775C8.11115 12.0819 8.61716 12.8478 9.18502 13.5669C9.46953 13.9274 9.77449 14.2713 10.0984 14.5968C10.1023 14.6007 10.1062 14.6046 10.11 14.6085C10.1177 14.6163 10.1253 14.624 10.1331 14.6315L10.2372 14.7356C10.5627 15.0595 10.9066 15.3645 11.2671 15.649C11.9863 16.2169 12.7523 16.723 13.5569 17.1616C14.9474 17.9287 15.7823 18.2817 16.2824 18.4227L16.2929 18.4382C16.429 18.4825 16.5714 18.5044 16.7145 18.503C16.763 18.5054 16.8116 18.5023 16.8593 18.494C17.1839 18.4555 17.5144 18.2957 17.8508 18.0147C17.8528 18.0136 17.8538 18.0125 17.8548 18.0114C17.856 18.0102 17.8571 18.009 17.8595 18.0079C18.2466 17.6615 18.5762 17.2556 18.8358 16.8056C18.8358 16.8045 18.8362 16.8029 18.8367 16.8012C18.8372 16.7994 18.8377 16.7976 18.8377 16.7962C19.0734 16.3437 18.9934 15.9145 18.6472 15.6222C18.6468 15.6222 18.6186 15.599 18.5708 15.5596C18.3746 15.3979 17.8488 14.9647 17.5634 14.7549C17.1875 14.4874 16.7985 14.239 16.3977 14.0104C15.863 13.7125 15.3169 13.8992 15.0907 14.1918L14.6215 14.782Z" fill="white" style="fill:white;fill-opacity:1;"/>
<path fill-rule="evenodd" clip-rule="evenodd" d="M22.2265 3.09817C21.6019 2.52193 19.0783 0.6899 13.457 0.665011C13.457 0.665011 6.82803 0.265267 3.59652 3.2294C1.79768 5.02863 1.16488 7.66127 1.09813 10.9252C1.03138 14.1892 0.945017 20.306 6.84123 21.9645H6.84689L6.84312 24.4954C6.84312 24.4954 6.80541 25.52 7.48007 25.7289C8.16114 25.9404 8.60739 25.433 9.18928 24.7714C9.30463 24.6402 9.42531 24.503 9.55421 24.3641C9.98186 23.9033 10.5724 23.2264 11.0174 22.709C15.0499 23.0484 18.1513 22.2726 18.5036 22.158C18.5763 22.1344 18.6792 22.1083 18.8069 22.0758C20.1097 21.7445 23.9919 20.7574 24.6743 15.1874C25.4478 8.88313 24.3002 4.8955 22.2265 3.09817ZM22.9098 14.7352C22.3403 19.3335 19.254 20.0517 18.142 20.3104C18.0191 20.339 17.9201 20.3621 17.8515 20.3841C17.5585 20.4783 14.8346 21.156 11.4092 20.9324C11.4092 20.9324 8.85692 24.0115 8.0597 24.8121C7.93525 24.9374 7.78893 24.9879 7.69125 24.963C7.55398 24.9294 7.51627 24.7669 7.51778 24.5293C7.52004 24.1899 7.53965 20.3237 7.53965 20.3237C2.71673 18.9847 2.82922 14.0727 2.89306 11.2848C2.89524 11.1896 2.89737 11.0968 2.89924 11.0067C2.9558 8.2805 3.46793 6.04722 4.98921 4.54516C7.72255 2.06939 13.3533 2.43934 13.3533 2.43934C18.1083 2.46008 20.3869 3.892 20.9152 4.37169C22.6696 5.87374 23.5633 9.46804 22.9098 14.7337V14.7352Z" fill="white" style="fill:white;fill-opacity:1;"/>
</svg>
