<svg width="72" height="56" viewBox="0 0 72 56" fill="none" xmlns="http://www.w3.org/2000/svg">
<path d="M17.4286 0H31.7143C27.5238 5.18984 24.1905 10.8819 21.7143 17.0762C19.4286 23.2706 18.381 28.5441 18.5714 32.8969L16.2857 28.6278C20.6667 28.6278 24.381 29.9671 27.4286 32.6457C30.4762 35.157 32 38.3378 32 42.1883C32 45.8715 30.4762 49.136 27.4286 51.9821C24.5714 54.6607 21.0476 56 16.8571 56C12.0952 56 8.09524 54.4933 4.85714 51.4798C1.61905 48.299 0 44.3647 0 39.6771C0 35.6592 0.761905 31.3064 2.28571 26.6188C4 21.7638 6.19048 16.9925 8.85714 12.3049C11.5238 7.61734 14.381 3.5157 17.4286 0ZM57.4286 0H71.7143C67.5238 5.18984 64.1905 10.8819 61.7143 17.0762C59.4286 23.2706 58.381 28.5441 58.5714 32.8969L56.2857 28.6278C60.6667 28.6278 64.381 29.9671 67.4286 32.6457C70.4762 35.157 72 38.3378 72 42.1883C72 45.8715 70.4762 49.136 67.4286 51.9821C64.5714 54.6607 61.0476 56 56.8571 56C52.0952 56 48.0952 54.4933 44.8571 51.4798C41.619 48.299 40 44.3647 40 39.6771C40 35.6592 40.7619 31.3064 42.2857 26.6188C44 21.7638 46.1905 16.9925 48.8571 12.3049C51.5238 7.61734 54.381 3.5157 57.4286 0Z" fill="#E70000" style="fill:#E70000;fill:color(display-p3 0.9059 0.0000 0.0000);fill-opacity:1;"/>
</svg>
