<svg width="26" height="26" viewBox="0 0 26 26" fill="none" xmlns="http://www.w3.org/2000/svg">
<path fill-rule="evenodd" clip-rule="evenodd" d="M0 12.6097C0 5.3656 5.67775 0 13 0C20.3223 0 26 5.36885 26 12.6129C26 19.857 20.3223 25.2226 13 25.2226C11.6838 25.2226 10.4228 25.0471 9.2365 24.7221C9.00575 24.6603 8.75875 24.6766 8.541 24.7741L5.9605 25.9115C5.80465 25.9803 5.6343 26.0097 5.46442 25.9972C5.29454 25.9847 5.13033 25.9306 4.98622 25.8398C4.84212 25.749 4.72253 25.6242 4.63797 25.4763C4.5534 25.3284 4.50646 25.1621 4.50125 24.9918L4.42975 22.6779C4.42325 22.3919 4.29325 22.1254 4.082 21.9369C1.5535 19.675 0 16.399 0 12.6097ZM9.01226 10.2405L5.19351 16.2983C4.82626 16.88 5.54126 17.5333 6.08726 17.1173L10.1888 14.0039C10.3237 13.9014 10.4884 13.8456 10.6578 13.845C10.8273 13.8444 10.9924 13.8991 11.128 14.0006L14.1668 16.2788C14.3823 16.4407 14.6291 16.5561 14.8914 16.6178C15.1538 16.6795 15.4262 16.6861 15.6913 16.6372C15.9563 16.5884 16.2084 16.4851 16.4316 16.3339C16.6547 16.1827 16.8441 15.9869 16.9878 15.7588L20.8098 9.70424C21.1738 9.1225 20.4588 8.46602 19.9128 8.88201L15.8113 11.9954C15.6763 12.0979 15.5116 12.1537 15.3422 12.1543C15.1727 12.1549 15.0077 12.1002 14.872 11.9987L11.8333 9.72049C11.6177 9.55862 11.371 9.4432 11.1086 9.3815C10.8462 9.31981 10.5738 9.31318 10.3088 9.36205C10.0437 9.41091 9.7916 9.5142 9.56845 9.66539C9.3453 9.81658 9.15592 10.0124 9.01226 10.2405Z" fill="white" style="fill:white;fill-opacity:1;"/>
</svg>
