<svg width="26" height="26" viewBox="0 0 26 26" fill="none" xmlns="http://www.w3.org/2000/svg">
<path fill-rule="evenodd" clip-rule="evenodd" d="M3.51239 11.8488C9.41795 9.27585 13.3559 7.57959 15.3263 6.76003C20.9521 4.42005 22.1211 4.01357 22.883 4.00014C23.0506 3.99719 23.4253 4.03872 23.668 4.23567C23.873 4.40197 23.9294 4.62661 23.9563 4.78428C23.9833 4.94195 24.0169 5.30112 23.9902 5.58177C23.6854 8.78504 22.3662 16.5585 21.6951 20.1462C21.4111 21.6643 20.852 22.1733 20.3107 22.2231C19.1343 22.3314 18.2409 21.4457 17.1015 20.6988C15.3186 19.53 14.3113 18.8025 12.5807 17.662C10.5806 16.3439 11.8772 15.6195 13.017 14.4356C13.3153 14.1258 18.4986 9.41117 18.5989 8.98348C18.6115 8.92999 18.6231 8.7306 18.5046 8.62532C18.3862 8.52004 18.2114 8.55604 18.0852 8.58467C17.9064 8.62526 15.0581 10.5079 9.54035 14.2326C8.73187 14.7877 7.99958 15.0582 7.34347 15.044C6.62016 15.0284 5.2288 14.6351 4.19447 14.2988C2.92583 13.8865 1.91753 13.6684 2.00533 12.9681C2.05106 12.6033 2.55341 12.2302 3.51239 11.8488Z" fill="white" style="fill:white;fill-opacity:1;"/>
</svg>
