<svg xmlns="http://www.w3.org/2000/svg">
    <symbol id="calendar" viewBox="0 0 29 28" xmlns="http://www.w3.org/2000/svg" fill="none">
        <path d="M18.7913 2.33325V6.99992M9.45801 2.33325V6.99992" stroke="currentColor" stroke-width="1.5" stroke-linecap="round" stroke-linejoin="round"/>
        <path d="M15.2917 4.66675H12.9583C8.55855 4.66675 6.35867 4.66675 4.99183 6.03358C3.625 7.40042 3.625 9.6003 3.625 14.0001V16.3334C3.625 20.7331 3.625 22.9331 4.99183 24.2999C6.35867 25.6667 8.55855 25.6667 12.9583 25.6667H15.2917C19.6914 25.6667 21.8914 25.6667 23.2581 24.2999C24.625 22.9331 24.625 20.7331 24.625 16.3334V14.0001C24.625 9.6003 24.625 7.40042 23.2581 6.03358C21.8914 4.66675 19.6914 4.66675 15.2917 4.66675Z" stroke="currentColor" stroke-width="1.5" stroke-linecap="round" stroke-linejoin="round"/>
        <path d="M3.625 11.6667H24.625" stroke="currentColor" stroke-width="1.5" stroke-linecap="round" stroke-linejoin="round"/>
        <path d="M14.1194 16.3333H14.1299M14.1194 20.9999H14.1299M18.7808 16.3333H18.7913M9.45801 16.3333H9.46847M9.45801 20.9999H9.46847" stroke="currentColor" stroke-width="2" stroke-linecap="round" stroke-linejoin="round"/>
    </symbol>
    <symbol id="notebook" viewBox="0 0 29 28" xmlns="http://www.w3.org/2000/svg" fill="none">
        <path d="M12.8794 25.6217H11.8316C8.0417 25.6217 6.14675 25.6217 4.96937 24.4258C3.79199 23.2297 3.79199 21.3048 3.79199 17.4551V11.6217C3.79199 7.77193 3.79199 5.84704 4.96937 4.65106C6.14675 3.45508 8.0417 3.45508 11.8316 3.45508H15.2771C19.067 3.45508 21.2811 3.51945 22.4587 4.71544C23.6361 5.91141 23.6253 7.77193 23.6253 11.6217V13.0059" stroke="currentColor" stroke-width="1.5" stroke-linecap="round" stroke-linejoin="round"/>
        <path d="M19.4782 2.33325V4.66659M13.6448 2.33325V4.66659M7.81152 2.33325V4.66659" stroke="currentColor" stroke-width="1.5" stroke-linecap="round" stroke-linejoin="round"/>
        <path d="M9.04199 17.5001H13.7087M9.04199 11.6667H18.3753" stroke="currentColor" stroke-width="1.5" stroke-linecap="round"/>
        <path d="M25.0948 17.3581C24.0385 16.1747 23.4048 16.2451 22.7006 16.4564C22.2076 16.5269 20.5176 18.4995 19.8134 19.1276C18.6572 20.2699 17.4958 21.4459 17.4192 21.5993C17.2003 21.9552 16.9967 22.5856 16.8981 23.2901C16.715 24.3468 16.4508 25.5365 16.7854 25.6384C17.1199 25.7403 18.0529 25.5445 19.1092 25.3895C19.8134 25.2627 20.3063 25.1217 20.6584 24.9104C21.1513 24.6146 22.0668 23.5719 23.6442 22.022C24.6335 20.9804 25.5877 20.2607 25.8695 19.5563C26.1511 18.4995 25.7286 17.9359 25.0948 17.3581Z" stroke="currentColor" stroke-width="1.5"/>
    </symbol>
    <symbol id="phone" viewBox="0 0 29 28" xmlns="http://www.w3.org/2000/svg" fill="none">
        <path d="M11.3096 6.66427L10.8399 5.60729C10.5327 4.91619 10.3791 4.57063 10.1494 4.30618C9.86159 3.97476 9.48638 3.73093 9.06662 3.60249C8.73168 3.5 8.35353 3.5 7.59724 3.5C6.49089 3.5 5.93772 3.5 5.47335 3.71267C4.92635 3.96319 4.43234 4.50716 4.23552 5.0757C4.06843 5.55834 4.11629 6.05433 4.21201 7.04632C5.23089 17.6052 11.0198 23.3941 21.5786 24.413C22.5706 24.5087 23.0667 24.5566 23.5492 24.3895C24.1179 24.1927 24.6618 23.6986 24.9124 23.1517C25.125 22.6872 25.125 22.1341 25.125 21.0278C25.125 20.2714 25.1249 19.8933 25.0225 19.5583C24.8941 19.1386 24.6502 18.7634 24.3188 18.4756C24.0544 18.2458 23.7089 18.0923 23.0177 17.7851L21.9607 17.3153C21.2123 16.9827 20.838 16.8164 20.4578 16.7803C20.0938 16.7456 19.7269 16.7967 19.3862 16.9294C19.0303 17.068 18.7157 17.3301 18.0864 17.8544C17.4602 18.3764 17.147 18.6374 16.7644 18.7771C16.4251 18.901 15.9766 18.947 15.6194 18.8943C15.2163 18.8349 14.9077 18.67 14.2905 18.3401C12.3701 17.3139 11.3111 16.2549 10.2848 14.3345C9.95499 13.7173 9.79007 13.4086 9.73068 13.0056C9.67803 12.6483 9.72392 12.1998 9.84785 11.8607C9.98764 11.478 10.2486 11.1648 10.7706 10.5385C11.2949 9.90929 11.5571 9.59469 11.6957 9.23873C11.8283 8.8981 11.8794 8.53113 11.8448 8.16723C11.8086 7.78694 11.6423 7.41272 11.3096 6.66427Z" stroke="currentColor" stroke-width="1.5" stroke-linecap="round"/>
    </symbol>
</svg>