<svg width="26" height="26" viewBox="0 0 26 26" fill="none" xmlns="http://www.w3.org/2000/svg">
<path d="M1 25L2.687 18.837C1.646 17.033 1.099 14.988 1.1 12.891C1.103 6.335 6.438 1 12.993 1C16.174 1.001 19.16 2.24 21.406 4.488C23.651 6.736 24.887 9.724 24.886 12.902C24.883 19.459 19.548 24.794 12.993 24.794C11.003 24.793 9.042 24.294 7.305 23.346L1 25ZM7.597 21.193C9.273 22.188 10.873 22.784 12.989 22.785C18.437 22.785 22.875 18.351 22.878 12.9C22.88 7.438 18.463 3.01 12.997 3.008C7.545 3.008 3.11 7.442 3.108 12.892C3.107 15.117 3.759 16.783 4.854 18.526L3.855 22.174L7.597 21.193ZM18.984 15.729C18.91 15.605 18.712 15.531 18.414 15.382C18.117 15.233 16.656 14.514 16.383 14.415C16.111 14.316 15.913 14.266 15.714 14.564C15.516 14.861 14.946 15.531 14.773 15.729C14.6 15.927 14.426 15.952 14.129 15.803C13.832 15.654 12.874 15.341 11.739 14.328C10.856 13.54 10.259 12.567 10.086 12.269C9.913 11.972 10.068 11.811 10.216 11.663C10.35 11.53 10.513 11.316 10.662 11.142C10.813 10.97 10.862 10.846 10.962 10.647C11.061 10.449 11.012 10.275 10.937 10.126C10.862 9.978 10.268 8.515 10.021 7.92C9.779 7.341 9.534 7.419 9.352 7.41L8.782 7.4C8.584 7.4 8.262 7.474 7.99 7.772C7.718 8.07 6.95 8.788 6.95 10.251C6.95 11.714 8.015 13.127 8.163 13.325C8.312 13.523 10.258 16.525 13.239 17.812C13.948 18.118 14.502 18.301 14.933 18.438C15.645 18.664 16.293 18.632 16.805 18.556C17.376 18.471 18.563 17.837 18.811 17.143C19.059 16.448 19.059 15.853 18.984 15.729Z" fill="white" style="fill:white;fill-opacity:1;"/>
</svg>
