<svg xmlns="http://www.w3.org/2000/svg" viewBox="0 0 20 20" fill="currentColor" aria-hidden="true">
  <path
    fill-rule="evenodd"
    clip-rule="evenodd"
    d="M10 18a8 8 0 1 0 0-16 8 8 0 0 0 0 16Zm6.6-6.55c-.45.1-.9.15-1.35.15-.95 0-1.85-.2-2.65-.55a12.5 12.5 0 0 0 2.35-5.25c1.45.95 2.4 2.4 2.65 3.65Zm-3.9-5.1a10.4 10.4 0 0 1-2.25 4.5 10 10 0 0 1-5.95-2.05 6.3 6.3 0 0 1 4.8-2.4c1.15 0 2.25.25 3.4.95ZM4.25 10.35c1.75 1.25 3.85 1.8 5.9 1.55-.35 1.95-1.1 3.95-1.6 5.5a6.28 6.28 0 0 1-4.3-7.05Zm7.05 6.5c.2-.5 1.1-3 1.5-5.15 2 .75 3.35 2.15 3.85 3.85a6.26 6.26 0 0 1-5.35 1.3Z"
  />
</svg>
