<?xml version="1.0" encoding="UTF-8"?>
<svg xmlns="http://www.w3.org/2000/svg" width="181" height="76" fill="none">
  <g clip-path="url(#a)">
    <mask id="b" style="mask-type:luminance" maskUnits="userSpaceOnUse" x="0" y="0" width="181" height="76">
      <path d="M180.5 0H.5v76h180V0Z" fill="#fff" style="fill:#fff;fill-opacity:1"></path>
    </mask>
    <g mask="url(#b)" fill="#fff" fill-opacity=".7">
      <path d="M60.785 42.218h-7.394v16.898h7.394V42.218ZM5.984 50.625c0 5.094 5.665 8.67 13.505 8.67 2.758 0 5.476-.608 7.179-1.532v-2.099c-2.122.842-3.569 1.56-6.056 1.56-2.88 0-5.84-1.546-5.84-6.599s3.487-6.6 5.948-6.6c2.068 0 3.366.318 5.948 1.423v-1.96c-1.69-.925-4.42-1.533-7.178-1.533-7.841 0-13.506 3.576-13.506 8.67Zm145.508 8.476h3.204l1.257-2.25h8.274l1.473 2.25h7.395l-11.45-17.588L151.492 59.1Zm5.705-4.473 2.568-4.597 3.001 4.597h-5.569ZM44.28 48.279c1.771-.497 3.001-1.45 3.001-3.065 0-2.568-2.568-3.01-6.826-3.01h-5.273v.014h-4.948v16.898h9.504c6.678 0 10.125-1.588 10.125-5.246 0-2.775-2.244-4.79-5.583-5.591Zm-2.703-2.058c0 .995-.785 1.657-2.082 1.657-.176 0-1.541.014-1.798.028h-.068V44.66h2.244c1.041-.013 1.704.498 1.704 1.56ZM39.48 56.755h-1.85v-7.593c3.42.11 5.489 1.367 5.489 4.335 0 2.789-1.515 3.258-3.637 3.258Zm69.688-14.538h-7.395v17.588l13.127-9.857V59.1h7.394V41.513L109.168 51.3v-9.084Zm33.067 5.785v.842h-7.044v-6.626h-7.394v16.884h7.394v-8.035h7.044v8.035h7.394V42.218h-7.394v5.784Zm-33.956-10.436 4.827-6.13h-4.718V16.898h-7.396v14.538h-7.34V16.898h-7.394v16.885h18.128l3.893 3.782ZM8.278 19.245h9.45v-2.347H.882v16.885h7.395V19.245Zm65.083 14.537h7.395V16.193l-13.127 9.788v-9.084h-7.395v17.589l13.127-9.857v9.153ZM46.998 16.193 36.86 33.782h3.19l5.07-9.057 5.921 9.057h7.409L47 16.193ZM35.996 33.782l-11.45-17.589-10.14 17.589h3.204l1.258-2.25h8.273l1.473 2.25h7.382Zm-15.898-4.46 2.568-4.597 3.001 4.597h-5.57Zm149.299-13.129-10.139 17.589h3.204l1.257-2.25h8.274l1.473 2.25h7.395l-11.464-17.589Zm-4.434 13.13 2.569-4.598 3.001 4.597h-5.57Zm-30.842-1.408c0-4.072-3.731-6.613-8.881-6.613h-3.204v-4.404h-7.395v16.899h9.503c6.679-.014 9.977-1.809 9.977-5.882Zm-10.234 3.52h-1.851V22.89c3.42.166 5.489 2.085 5.489 4.653.013 2.774-1.501 3.893-3.638 3.893Zm27.432-9.373 5.989-5.164h-3.704l-9.342 8.298v-8.298h-7.395v17.589l8.855-7.62 4.258 6.916h8.599l-7.26-11.721ZM98.217 42.218h-3.704l-9.341 9.167v-9.167h-7.395v9.167l-9.341-9.167h-3.704l5.705 5.646-6.976 11.238h8.598l3.555-5.95 5.867 5.95 5.854-5.95 3.555 5.95h8.598l-6.962-11.238 5.691-5.646Z" style="fill:#fff;fill-opacity:.7"></path>
    </g>
  </g>
  <defs>
    <clipPath id="a">
      <path fill="#fff" style="fill:#fff;fill-opacity:1" transform="translate(.5)" d="M0 0h180v76H0z"></path>
    </clipPath>
  </defs>
</svg>
