<?xml version="1.0" encoding="UTF-8"?>
<svg xmlns="http://www.w3.org/2000/svg" width="138" height="35" fill="none">
  <path fill-rule="evenodd" clip-rule="evenodd" d="M72.934.524v33.354h-6.779V20.217h-3.138L57.996 34h-6.779l5.272-14.523c-1.506-.861-2.636-2.215-3.389-3.815-.628-1.477-.753-2.338-.753-3.815V9.632c0-1.97 0-3.077 1.255-5.046C55.11 2.248 57.62.648 60.381.648 64.649.524 68.79.524 72.934.524Zm-10.796 14.4h4.017V5.818h-3.138c-2.134 0-3.766 1.23-3.766 3.446v3.2c.377 1.723 1.255 2.462 2.887 2.462ZM113.23.524V6.31h-1.507c-3.766.123-.878 7.754-4.268 10.462l6.151 17.107h-6.904l-5.272-14.523h-2.762v14.523H91.89v-14.4h-2.761l-5.273 14.523h-6.778l6.15-17.107c-3.514-2.709-.628-10.34-4.268-10.463h-1.507V.524h2.887c9.415 0 3.39 13.662 10.168 13.662h1.507V.524h6.779v13.662h1.506c6.779 0 .753-13.662 10.168-13.662h2.762Zm13.934-.246c3.766 0 9.917 1.477 10.419 9.354v24.369h-6.779V30.31c-1.004 1.6-2.134 2.954-4.017 3.446-5.272 1.477-9.54-2.215-9.917-6.523-.251-1.723-.376-4.923 0-6.646.753-3.57 4.143-6.646 7.909-6.646h6.025v-2.83c0-5.662-6.904-5.909-7.281-.986h-6.402c-.251-5.292 3.264-9.846 10.043-9.846Zm3.515 25.108v-6.154h-4.268a3.363 3.363 0 0 0-2.888 2.339c-.251.738-.251 4.307 0 4.923.628 1.477 2.009 2.338 3.641 2.215 2.134-.246 3.264-1.97 3.515-3.323ZM0 .524h6.779V13.94h4.017C15.189 12.094 10.92.524 19.457.524h2.888V6.31h-1.507c-3.766.123-.753 8.246-4.644 10.708l6.15 16.861h-6.778l-5.147-14.154H6.78v14.277H0V.524Zm40.421 19.693h-7.03V34h-6.778V.524h6.779V14.31h7.03V.524H47.2v33.354h-6.779V20.217Z" fill="#fff" fill-opacity=".7" style="fill:#fff;fill-opacity:.7"></path>
</svg>
