<?xml version="1.0" encoding="UTF-8"?>
<svg xmlns="http://www.w3.org/2000/svg" width="195" height="98" fill="none">
  <g clip-path="url(#a)">
    <path fill-rule="evenodd" clip-rule="evenodd" d="M72.568.71c-1.38.376-3.332.89-4.341 1.143l-1.834.46-.904-.67c-.817-.603-1.234-.678-4.275-.763-3.141-.087-3.4-.054-3.808.483-.284.373-1.213.773-2.637 1.137-1.274.324-3.096 1.077-4.329 1.788-2.234 1.288-3.356 1.665-5.847 1.965-1.908.23-2.411.504-2.98 1.62-.622 1.224-.581 1.21-1.347.491l-.681-.64-1.137.593c-1.346.702-2.502.74-5.229.17-1.595-.332-2.28-.355-3.256-.11-1.472.37-2.338 1.17-1.874 1.728.247.298-.072.47-1.613.87-1.057.274-2.061.411-2.232.306-.171-.106-.494-.04-.717.144-.318.264-.496.261-.823-.01-.343-.284-.725-.144-2.178.802-.969.63-1.973 1.147-2.232 1.147-.259 0-.814-.497-1.234-1.105-.922-1.335-1.324-1.497-2.854-1.153-1.848.415-3.754 2.588-3.966 4.522-.066.6.032.66 1.105.66 1.289 0 1.665.409.746.812-.564.248-.54.32.662 2.038 1.308 1.87 2.692 2.966 4.114 3.258.771.159.894.08 1.338-.85.368-.77.569-.946.809-.706.24.24.236.402-.015.653-.457.457-.42.78.089.78.233 0 .567-.314.742-.698.295-.648.354-.666.812-.251.621.561.95.358 1.654-1.019.587-1.151 1.154-1.487.906-.536-.164.627.346 1.39.928 1.39.443 0 .53-1.269.106-1.531-.341-.21-.372-1.253-.038-1.253.133 0 .58.267.995.593.56.44.835.512 1.068.278.437-.436.76-.392.76.104 0 .23.047.417.104.417.38 0 2.673-1.184 2.958-1.528.196-.236.793-.418 1.36-.416 1.01.005 1.01.005-.94 1.143-1.072.626-3.172 1.549-4.667 2.05-1.494.502-2.904 1.068-3.134 1.258-.229.19-.416.769-.416 1.286 0 1.012-.283 1.189-.836.523-.55-.662-.773-.5-.978.712-.105.621-.475 1.46-.823 1.864-.569.66-.879.75-3.106.895-2.607.17-3.428.46-4.127 1.457-.383.547-.383.657.005 1.085.397.438.33.546-.821 1.338-.69.474-1.44.862-1.668.862-.228 0-.487.156-.577.348-.13.278-.195.278-.325 0-.28-.602-.588-.39-1.509 1.044-.919 1.431-1.6 1.73-2.225.977-.19-.227-.76-.671-1.27-.985-.845-.523-1.007-.538-1.87-.177-1.128.47-1.91 1.922-2.101 3.896l-.13 1.345 1.291-.193c1.068-.16 1.291-.118 1.291.242 0 .24-.198.546-.44.681-.816.457 3.504 3.857 5.511 4.338.689.165.769.098.937-.796.179-.954.956-1.408.956-.558 0 .23-.125.417-.278.417a.28.28 0 0 0-.279.279c0 .153.251.278.557.278.41 0 .558-.186.558-.696 0-.703.379-.93.696-.418.355.575.975.274 1.003-.487a6.88 6.88 0 0 1 .24-1.462l.21-.696.303.742c.166.408.56.824.874.924.476.15.522.276.274.74-.334.623-.456.405 2.057 3.678 1.84 2.398 2.887 3.356 4.335 3.973l1.011.43-1.95.798c-1.072.438-2.17.804-2.437.812-.667.02-.63.736.238 4.78l.726 3.379-.777 2.287-.777 2.287 4.56 5.058c3.06 3.394 4.703 5.016 4.996 4.93.24-.07 1.236-.329 2.215-.576 1.613-.408 3.885-1.189 4.193-1.441.067-.055-.152-.292-.487-.527-.81-.567-.76-1.527.113-2.163.68-.495.726-.495 1.26-.012.377.34.503.708.395 1.14-.183.727.17.842.686.222.468-.565.878-.528.778.07-.045.267.075.474.266.459.192-.016.904-.047 1.582-.07.679-.023 1.422-.23 1.652-.46.23-.229.596-.417.813-.417.218 0 1.993-.758 3.945-1.684 2.726-1.293 3.51-1.783 3.384-2.114-.224-.583 1.477-2.191 1.886-1.783.54.54 1.05.298 2.765-1.31 1.022-.957 1.519-1.299 1.236-.85-.707 1.124-.064 1.25.915.179.46-.503.835-1.012.835-1.13 0-.12.125-.217.279-.217.153 0 .278.376.278.835 0 .46.083.835.184.835.464 0 2.622-1.467 2.888-1.963.452-.844.1-1.1-1.524-1.1-1.29 0-1.51.082-1.69.627l-.207.627-.124-.627c-.114-.582-.269-.626-2.193-.626h-2.07V29.234H66.3v7.237h-9.471v4.734h8.914v6.96h-8.935l.08 2.575.08 2.575 4.666-.103 4.666-.104v7.307h-1.995c-1.76 0-2.155.103-3.355.872-1.517.972-2.316 2.35-2.2 3.791.075.937-.182 1.14-.74.583-.244-.244-.423-.239-.739.023-.337.28-.579.25-1.263-.154-.652-.385-.921-.423-1.176-.169-.255.255-.223.448.137.846.66.73.58.929-.23.56-.807-.367-1.353-.043-.62.367.437.244.334.454-.933 1.91-.782.899-1.579 1.575-1.77 1.502-.19-.073-1.961.946-3.936 2.264-4.307 2.874-6.803 4.407-6.946 4.265-.058-.058.624-.938 1.514-1.956 1.3-1.487 1.592-1.993 1.482-2.57-.171-.894-.558-.904-1.824-.046-.838.569-1.018.607-1.156.247-.113-.295-.27-.342-.509-.154-.19.15-.72.405-1.18.566-.545.192-.654.302-.314.316.43.018.46.095.177.437-.218.262-.589.354-1.01.248-.4-.1-.664-.044-.664.142 0 .17.22.313.488.318.44.007.444.042.045.348-.243.186-.388.5-.322.696.066.197-.037.547-.23.778-.29.351-.17.603.728 1.522.653.669 1.334 1.101 1.734 1.101.362 0 .912.136 1.222.302.44.235.862.174 1.914-.278.742-.32 1.664-.58 2.048-.58.484 0 .853-.262 1.202-.854.409-.694.634-.824 1.2-.695 2.299.525 3.622.503 4.987-.084 1.499-.644 3.684-.779 4.934-.304l.766.29-2.075 2.146c-3.287 3.398-3.99 4.213-3.8 4.404.1.098.78-.32 1.514-.928 2.499-2.07 2.67-2.138 3.743-1.484 1.111.677 1.469.72 1.251.153-.115-.301.03-.417.527-.417.604 0 .688-.123.688-.998 0-1.578.541-1.035 1.842 1.85 1.09 2.416 1.271 2.658 2.249 3 1.03.362 2.401.334 6.108-.121 1.073-.132 1.683-.052 2.484.328l1.06.503 2.1-1.098c1.154-.604 3.546-2.023 5.316-3.155 5.072-3.245 5.027-3.22 5.027-2.705 0 .244-.533.824-1.184 1.29-1.833 1.31-2.159 1.624-2.159 2.077 0 .928 1.02.3 3.44-2.121 2.852-2.853 3.272-3.165 4.601-3.41.839-.154.923-.113.793.384-.182.695.283.716 1.038.047.316-.28 1.105-.66 1.754-.845.717-.204 2.182-1.142 3.732-2.39 1.404-1.129 2.703-1.996 2.885-1.926.433.166 1.082-.619.838-1.013-.134-.216-.303-.209-.587.028-.22.182-.46.272-.533.2-.072-.074.38-.545 1.006-1.047.852-.684 1.217-.834 1.455-.596.238.237.23.458-.033.878-.519.832-.14 1.18 1.072.987.58-.093 1.259-.247 1.509-.343.413-.158.417-.09.045.765a17.228 17.228 0 0 0-.551 1.403c-.113.366-.375.431-1.261.313-.616-.083-1.345-.059-1.62.053-.468.191-.465.22.056.433.307.126.902.238 1.324.25.82.02 1.037.489.348.753-.641.246-.496.658.232.658 1.587 0 1.183.718-2.526 4.496-2.617 2.665-2.86 2.996-2.398 3.275.494.299.493.326-.044.735-1.431 1.09-2.68 1.765-3.023 1.633-.94-.36-2.183 3.463-2.237 6.877-.025 1.659-.115 2.09-.409 1.978-.247-.094-.343.027-.279.354.094.475 4.414 2.915 5.174 2.921.56.005 3.492-1.416 4.488-2.175.696-.53.897-.868.805-1.352-.088-.459.006-.646.325-.647 1.587-.006 2.691-.68 4.876-2.982 2.247-2.366 3.419-3.142 4.748-3.142.505 0 .653.115.537.418-.291.757.322.436 1.545-.81 1.304-1.327 1.308-1.693.022-1.975-.848-.186-1.162-.695-.43-.695.221 0 .566-.331.766-.736.267-.54.604-.754 1.269-.803 1.169-.087 1.142.04-.119.567-1.114.465-1.023.805.304 1.133.642.158.78.117.659-.198-.084-.22.052-.646.303-.947.405-.486.968-.818 3.934-2.319.655-.331 1.515-1.839 1.53-2.683.003-.153.632-.592 1.398-.974 1.63-.815 2.643-2.422 3.351-5.317.239-.98.642-2.265.895-2.853.419-.978.49-1.028.822-.573.2.273.364.723.364 1s.157.503.348.503c.533-.002 2.158-1.064 2.336-1.527.122-.317.283-.344.708-.116.818.437 1.344.103 1.344-.853 0-.76.507-1.244.592-.566.068.543.122.702.409 1.198.248.428.435.21 1.281-1.495 1.119-2.253 1.108-3.044-.043-3.044-.87 0-1.373.489-2.203 2.14-.778 1.546-1.105 1.695-1.464.665-.401-1.151-.801-1.082-.801.14 0 .795-.097.975-.485.9-.267-.05-.65-.436-.851-.855-.438-.913-.643-.947-1.118-.187-.198.317-.51.52-.694.454-.184-.067-.565.08-.847.326-.473.413-.542.407-.895-.075-.349-.478-.438-.486-1.026-.1-.355.231-.889.875-1.188 1.43-.382.709-.734 1.009-1.183 1.009-.925 0-1.439 1.206-.811 1.9.575.635.595 1.162.045 1.162-.563 0-.534.809.035 1.027.291.112.638-.066.969-.496.404-.526.517-.569.522-.203.006.493-3.089 3.013-3.699 3.013-.196 0-1.605.422-3.131.938-2.413.815-2.766 1.014-2.71 1.526.041.365-.321.975-.951 1.605-.956.955-1.04.986-1.389.509-.204-.28-.371-.657-.371-.84 0-.182-.316-.392-.702-.466-.579-.11-.692-.032-.653.455.027.324.026.84-.001 1.146-.046.519-.086.51-.58-.133l-.53-.69-1.717 1.873c-1.209 1.32-1.915 1.873-2.389 1.873-.991 0-.83.372.722 1.67.811.68 1.392 1.396 1.392 1.718 0 .528-.034.524-.809-.096-.446-.356-.873-.866-.949-1.135-.189-.659-.767-.616-.946.07-.15.57-.403.7-.729.374-.101-.101-.028-.37.162-.6.301-.362.176-.39-.978-.216l-1.322.198v-1.01c0-.97.034-1.005.905-.921.784.075.918-.007 1-.609.051-.383.362-.984.689-1.337.566-.61.614-.617.971-.14.352.47.43.44 1.204-.472.47-.554.773-1.184.701-1.462-.096-.376.049-.487.642-.487.768 0 1.688-.732 1.688-1.344 0-.401-.162-.408-.854-.038-.703.376-.685-.027.042-.951l.581-.738.833.7c.459.385.949.7 1.091.7.141 0 .257.314.257.697 0 .914.417.88 1.414-.118 1.105-1.103 1.056-1.484-.16-1.256-.537.1-.975.133-.975.072 0-.061.25-.603.557-1.204.368-.721.557-1.642.557-2.713 0-2.148.576-3.49 1.662-3.868.465-.162.845-.47.845-.685 0-.515-.334-.492-1.352.092-.813.466-1.38.385-1.049-.15.088-.143 1.17-.74 2.404-1.325 2.643-1.254 2.892-1.72 1.972-3.695-.333-.714-.569-1.606-.524-1.982.059-.5-.07-.715-.476-.794-.769-.15-1.811-1.16-1.811-1.756 0-1.102 2.103-1.754 3.134-.972.598.453.624.726.07.726-.512 0-.526.53-.03 1.183.487.642.726.616.726-.078 0-.804.761-2.52 1.436-3.238.594-.632.499-1.208-.199-1.208-.269 0-.401-.306-.401-.933 0-2.13-1.474-4.64-3.521-5.995-1.426-.944-2.726-1.13-2.996-.427-.093.242-.169.855-.169 1.362 0 1.706-.662 1.313-1.917-1.137-1.171-2.286-1.487-2.634-1.852-2.044-.108.175-.31.194-.504.045-.692-.529-4.919-1.52-5.763-1.351-.782.156-.896.083-1.265-.8-.278-.664-.588-.97-.982-.97-.503 0-.551-.114-.383-.905.106-.497.367-1.102.579-1.344.502-.57.491-.992-.031-1.192-.229-.088-.417-.352-.417-.587 0-.331-.342-.426-1.533-.426h-1.532v21.994H91.65V38.42h-6.407v-9.188h9.89c5.438 0 9.889.094 9.89.209.043 4.796.183 8.143.341 8.143.208 0 .266-.225.678-2.591.333-1.914.81-1.518.692.573-.117 2.074.26 2.271 1.046.547.761-1.67.963-2.61.607-2.83-.167-.103-.301.008-.301.248 0 .239-.14.434-.311.434-.174 0-.247-.245-.166-.556.08-.306.032-.627-.107-.713-.536-.332-.197-1.05 1.187-2.512l1.439-1.521-.751-.784c-.486-.507-.688-.95-.571-1.252.107-.28-.086-.859-.479-1.436-.494-.724-.86-.967-1.457-.968-.618-.002-1.3-.49-3.015-2.159-1.927-1.873-2.253-2.092-2.489-1.67-.333.595-1.08.642-1.08.068 0-.553-.08-.535-1.28.279-1.29.875-1.562.875-1.342 0 .2-.794.254-.783-1.975-.424-1.136.183-2.845.864-5.34 2.13l-3.67 1.86-.841-.708c-1.099-.924-3.021-1.35-5.61-1.24-2.353.097-3.907.613-6.964 2.307-1.532.85-2.186 1.08-2.451.868-.259-.208-.478-.175-.77.116-.606.606-4.397.202-5.458-.582-.556-.411-1-.527-1.515-.398-.484.122-.812.053-.974-.203-.527-.831-.241-.886 1.774-.339.353.097.573-.091.77-.658.153-.435.535-.953.851-1.15.504-.315.593-.289.724.214.27 1.031 1.228.695 3.664-1.283 1.535-1.246 2.516-1.664 3.245-1.384.762.292.438.587-1.532 1.394-1.072.44-1.95.962-1.95 1.162 0 .2.432.505.959.678.714.236.98.498 1.044 1.028.08.649.22.541 1.603-1.225 1.878-2.397 3.121-3.291 3.9-2.805.445.278.638.252 1.072-.14.342-.31 1.109-.51 2.174-.566 1.507-.079 2.511-.399 3.363-1.07.215-.17.247-.527.095-1.056-.126-.44-.178-.852-.113-.916.113-.113 2.882.37 4.308.753.605.162.893-.003 1.88-1.073.641-.695 1.166-1.37 1.166-1.5 0-.13-.69-1.145-1.532-2.257-.843-1.112-1.532-2.127-1.532-2.256 0-.349 1.405-1.388 1.878-1.388.281 0 .347.153.21.487-.41.992-.475 1.462-.204 1.462.324 0 .901-2.105.901-3.282 0-1.102-1.973-4.09-3.08-4.66-1.356-.702-3.718-.862-4.561-.31-1.067.699-1.648.602-1.437-.24.152-.604.082-.696-.527-.696-.386 0-.67-.132-.632-.294.114-.483-2.038-1.09-3.83-1.08-.92.005-2.8.316-4.18.692Zm-3.01 10.018c-1.016.893-.587.893.503 0 .46-.377.71-.686.557-.686-.153-.001-.63.308-1.06.686Zm-16.642 2.38c-.241.451-.219.684.1 1.044.227.256.469.715.538 1.021.104.458.21.37.589-.484.443-.998.44-1.065-.098-1.601-.695-.695-.746-.694-1.129.02Zm28.847 2.757c-.096.156-.409.283-.695.283-.505 0-1.812 1.348-1.556 1.604.12.12 1.812-.954 2.11-1.34.076-.1.32-.24.543-.31.28-.09.307-.19.089-.325-.174-.107-.394-.068-.49.088Zm-37.888 5.851c-.095.153.079.278.385.278s.635-.125.73-.278c.094-.153-.08-.278-.386-.278s-.634.125-.729.278Zm-9.03 3.673c-.403 1.154-.419 1.135.534.642.975-.504 1.03-.718.301-1.173-.47-.294-.57-.232-.835.53Zm2.762-.037c0 .162.126.217.279.123.153-.095.278-.228.278-.295 0-.068-.125-.123-.278-.123-.154 0-.279.133-.279.295Zm36.605 3.875c-2.291.752-3.98 2.276-5.001 4.514-.731 1.603-.802 2.036-.811 4.958-.014 4.059.49 5.678 2.34 7.527 1.014 1.013 1.88 1.52 3.973 2.331 1.472.57 2.877 1.258 3.121 1.528.641.707.547 1.828-.228 2.728-.637.74-.797.78-2.995.78-2.036 0-2.554-.11-4.21-.893l-1.887-.894.077 3.957.077 3.956 1.532.53c1.19.41 2.373.535 5.293.556 3.578.026 3.83-.01 5.192-.727 3.125-1.648 4.61-4.671 4.617-9.407.006-3.677-.784-6.18-2.404-7.614-1.023-.905-2.763-1.796-4.468-2.285-1.76-.504-3.216-1.657-3.216-2.547 0-2.186 3.562-2.883 7.383-1.443.766.289 1.427.525 1.47.525.042 0 .042-1.709 0-3.798l-.078-3.798-1.253-.391c-.69-.215-2.507-.45-4.04-.521-2.28-.106-3.093-.028-4.484.428ZM20.62 30.695c.003.804.19 4.593.414 8.422.224 3.828.409 7.555.411 8.282l.005 1.323h4.967l.154-2.019c.084-1.11.284-4.587.444-7.726.16-3.139.362-6.615.45-7.725l.161-2.019h-7.012l.006 1.462Zm10.766-1.276c-.102.102-.186 7.118-.186 15.59v15.406h7.243V49.279h8.636v-7.225l-4.249-.076-4.248-.077-.08-2.715-.08-2.714h8.936v-7.239h-7.893c-4.34 0-7.976.084-8.078.186Zm91.776.975c-3.357 1.66-3.991 6.68-1.166 9.23 3.04 2.745 7.615 1.772 9.272-1.972.96-2.168.158-5.315-1.7-6.676-1.795-1.314-4.44-1.554-6.406-.582Zm39.225 3.154c-1.751 2.067-3.277 3.759-3.392 3.759-.115 0-.209-1.637-.209-3.638v-3.638l-.766.089-.766.087v5.499c0 3.024.083 5.498.184 5.498.102 0 1.669-1.712 3.482-3.805l3.298-3.806.078 3.527.078 3.528h1.655v-5.43c0-2.985-.103-5.428-.229-5.428s-1.661 1.691-3.413 3.758Zm-52.74-3.132c.112.192.941 1.38 1.844 2.642l1.642 2.293-1.827 2.553c-1.005 1.403-1.827 2.666-1.827 2.805 0 .139.406.213.903.165.769-.074 1.103-.378 2.24-2.036.734-1.072 1.425-1.979 1.534-2.016.108-.037.69.698 1.293 1.632.602.934 1.26 1.864 1.463 2.066.331.331 1.581.399 1.878.102.065-.065-.687-1.233-1.672-2.594-.984-1.362-1.789-2.598-1.789-2.746 0-.15.538-1.038 1.196-1.977a83.393 83.393 0 0 0 1.678-2.471l.481-.766h-.936c-.858 0-1.04.165-2.161 1.95-.673 1.071-1.288 1.947-1.368 1.947-.079-.001-.746-.878-1.482-1.95-1.227-1.785-1.419-1.947-2.315-1.947-.703 0-.92.098-.775.348Zm25.119 4.037-.077 4.385-.905.398c-1.29.568-1.236 1.412.091 1.412.73 0 1.214-.218 1.811-.814l.814-.814v-7.56h4.179l.056 2.437c.031 1.34.074 3.438.096 4.663.038 2.156.06 2.227.709 2.227h.671l.076-5.36.075-5.359h-7.519l-.077 4.385Zm12.04-4.324c-.093 7.387-.121 7.672-.809 8.404-.369.392-.902.787-1.184.876-.434.138-.513.463-.513 2.111v1.949l.766-.088c.678-.078.782-.227.905-1.294l.14-1.206 3.76-.047 3.761-.047.085 1.322c.077 1.195.151 1.323.766 1.323.657 0 .681-.069.681-1.93 0-1.878-.02-1.933-.734-2.019l-.735-.088-.031-4.594-.032-4.594-3.412-.078c-1.877-.043-3.413-.043-3.414 0Zm22.629 5.299c.074 5.22.091 5.361.666 5.443.729.104.933-.533.938-2.938l.004-1.74 1.95-.052c1.072-.029 2.294-.06 2.716-.07l.766-.017.139 2.36c.136 2.295.159 2.36.836 2.359h.696l.076-5.353.076-5.352h-1.684v4.455h-5.571v-4.455h-1.684l.076 5.36Zm12.194-.086c0 3.246.108 5.34.281 5.447.154.095.53.094.835-.003.525-.166.555-.427.555-4.75V31.46h2.089c2.043 0 2.09-.015 2.09-.696v-.696h-5.85v5.274Zm-58.287-3.08c-1.089 1.014-1.164 1.184-1.259 2.853-.176 3.056 1.435 4.855 4.137 4.62 2.319-.201 3.594-1.749 3.594-4.363 0-2.619-1.505-4.19-4.013-4.19-1.126 0-1.457.145-2.459 1.08Zm25.097 2.33c-.076 2.413-.215 3.333-.587 3.901-.268.409-.488.816-.488.903 0 .089 1.034.124 2.299.08l2.298-.081V31.6l-1.711-.083-1.71-.082-.101 3.158ZM12.544 38.909c.004.114.381.619.838 1.12l.83.912.958-.957c.773-.773.873-.99.52-1.126-.242-.092-.615-.022-.83.157-.295.244-.563.245-1.092.004-.811-.369-1.236-.407-1.224-.11Zm91.294.837c-.969.6-.982.966-.032.852.791-.095 1.899-1.348 1.18-1.334-.211.004-.727.221-1.148.482Zm84.128 2.487c-.603.157-.62.609-.053 1.418 1.023 1.46 3.446 1.887 5.073.895 1.143-.696 1.751-1.87 1.162-2.242-.598-.379-1.377-.315-1.377.111 0 .631-.971 1.296-1.894 1.296-.649 0-1.034-.215-1.492-.835-.34-.46-.689-.82-.775-.803-.086.018-.376.09-.644.16Zm-6.56.42c-.946.945.166 2.52 1.337 1.894.983-.526.558-2.228-.557-2.228-.245 0-.596.15-.78.334Zm-81.492 2.914c-.102.102-.181.384-.177.627.007.362.062.35.304-.067.3-.516.213-.9-.127-.56Zm42.59 1.694c-.104.575-.542 2.673-.975 4.663-1.313 6.031-1.295 5.763-.379 5.658.766-.087.796-.16 1.47-3.5.379-1.876.755-3.41.837-3.41.082 0 .863 1.597 1.735 3.55.872 1.952 1.739 3.549 1.927 3.549.187 0 1.041-1.525 1.897-3.39.857-1.864 1.633-3.466 1.725-3.558.093-.092.446 1.182.785 2.833.339 1.65.678 3.22.753 3.489.173.615 1.492.672 1.492.064 0-.54-2.219-10.798-2.369-10.947-.111-.11-1.392 2.577-3.191 6.695-.515 1.18-1.011 2.1-1.101 2.044-.09-.057-1.041-2.053-2.114-4.436-1.072-2.383-2.029-4.337-2.128-4.34-.097-.005-.262.462-.364 1.036Zm-10.731-.325c-2.123.92-3.073 2.549-3.073 5.267 0 2.752.962 4.371 3.135 5.28 2.299.959 5.171.224 6.308-1.615.713-1.152.734-1.508.1-1.63-.289-.055-.947.388-1.624 1.093-1.044 1.09-1.253 1.187-2.541 1.187-1.642 0-2.723-.691-3.322-2.126-.798-1.908-.775-1.922 2.995-1.817 1.858.052 3.816.012 4.35-.088.965-.181.97-.19.785-1.347-.571-3.572-3.957-5.572-7.113-4.204Zm26.75.168c-1.845.961-2.867 2.398-3.021 4.248-.186 2.247.109 3.292 1.32 4.667 2.866 3.254 8.429 2.176 9.772-1.893.434-1.314.226-3.386-.477-4.745-1.273-2.461-5.06-3.597-7.594-2.277Zm32.951 3.296-3.299 3.905-.139-3.696-.14-3.696h-1.392l-.076 5.499c-.043 3.167.032 5.498.178 5.498.139 0 1.677-1.68 3.418-3.736 1.741-2.054 3.228-3.746 3.305-3.759.076-.012.139 1.575.139 3.528v3.55l.766.088.766.088V52.08c0-3.073-.051-5.587-.114-5.587-.062 0-1.598 1.758-3.412 3.905Zm-21.626-3.452c-.109.108-.198 2.556-.198 5.44v5.244h8.327l.085 1.322c.071 1.109.174 1.323.642 1.323.498 0 .565-.213.639-2.019l.082-2.018h-1.696v-9.503l-.766.088-.767.088-.076 4.663-.076 4.664h-4.659l-.195-1.3c-.108-.715-.156-2.813-.108-4.663.084-3.197.06-3.368-.474-3.445-.31-.045-.652.007-.76.116Zm11.634.164c-.08.207-.111 2.628-.069 5.379l.076 5.002.773.088.772.089-.076-5.378c-.075-5.343-.08-5.38-.704-5.468-.345-.049-.693.08-.772.288Zm-49.19 1.192c-.885.48-1.642 1.582-1.642 2.387 0 .584.068.593 3.273.45 1.8-.08 3.298-.156 3.329-.168.03-.013-.076-.398-.236-.856-.665-1.907-2.943-2.78-4.724-1.813Zm27.071.055c-1.347.709-2.026 1.768-2.183 3.402-.167 1.73.253 2.82 1.51 3.923.769.675 1.202.834 2.264.833 2.31-.002 3.81-1.332 4.13-3.663.211-1.541-.582-3.563-1.68-4.282-1.09-.713-2.907-.81-4.041-.213ZM21.729 50.944c0 .428.181.56.766.558.421-.003.95-.121 1.176-.264.457-.289.342-.356-1.176-.689-.639-.14-.766-.074-.766.395Zm-.328 2.302c-.027.497-.065 2.314-.083 4.037l-.034 3.132h5.364l.053-4.037.053-4.037H21.45l-.049.905Zm89.758 1.722c-.005.143.25.536.567.873l.575.612-.784.559c-.432.307-1.286 1.254-1.899 2.105-.893 1.239-1.233 1.517-1.711 1.4-.328-.081-.678-.015-.778.147-.177.286.163 1.877.705 3.302.261.684.277.688.836.183.442-.4.531-.72.398-1.429-.164-.87.167-1.253.55-.635.311.504.738.29.557-.278-.226-.712.188-.715.83-.007.966 1.068 1.356-.072.459-1.342-.519-.734-.533-2.549-.02-2.549.451 0 .555.543.21 1.096-.281.45-.281.63-.001.91s.486.185 1.041-.48c1.301-1.56 1.327-1.72.332-2.067-.72-.25-.817-.367-.483-.578.23-.145.751-.266 1.158-.269.602-.003.712-.108.594-.56-.162-.619-.672-.708-1.504-.263-.448.24-.651.174-1.086-.348-.295-.353-.54-.525-.546-.382Zm-.845.714a.279.279 0 1 0 .279-.278.28.28 0 0 0-.279.278Zm-9.143 2.65c-.533.232-.846.53-.738.704.128.207.331.177.646-.095a7.329 7.329 0 0 1 1.017-.706c.8-.443.168-.376-.925.098Zm42.019 2.558c-.518.659-.663.71-1.153.403-.541-.337-.554-.302-.373.987.193 1.36.87 2.777 1.18 2.467.094-.094.205-.754.246-1.467.116-1.997.242-2.18 1.106-1.615.673.441.758.443 1.181.017.421-.425.404-.498-.241-.996-.932-.719-1.245-.686-1.946.204Zm3.229.8c-.29.756-.19 1.562.179 1.441.409-.134.648-1.88.257-1.88-.147 0-.343.197-.436.44Zm-57.209.392c-.19.304-.346.745-.346.98 0 .398-.42.655-1.81 1.109-.541.176-.539.192.072.52.346.187.828.625 1.072.973.409.582.483.597.932.192.268-.243 1.327-.542 2.353-.666 1.327-.16 2.038-.397 2.464-.821.63-.63.495-1.196-.157-.655-.527.437-.76.111-.469-.654.323-.847.114-1-1.1-.805-.74.118-1.116.041-1.385-.282-.502-.606-1.21-.558-1.626.108Zm50.643 1.326c.005.114.184.522.397.905.341.611.411.636.578.209.252-.652-.031-1.323-.559-1.323-.234 0-.422.094-.416.209Zm-93.902 1.159c.26.485.252.712-.037 1.063-.207.25.087.152.674-.227 1.156-.747 1.318-1.09.513-1.09a3.36 3.36 0 0 1-1.007-.182c-.412-.158-.43-.101-.143.436Zm92.905.999c-.044.153-.162.644-.261 1.092-.16.725-.131.774.268.442.247-.204.693-.714.991-1.132l.542-.76-.73.039c-.401.022-.766.165-.81.319Zm2.861-.25c-.111.112-.203.395-.203.63 0 .313.083.344.31.117.171-.17.262-.454.203-.63-.058-.176-.198-.229-.31-.117Zm-34.329 1.27c.05.681.717 1.122 1.224.808.266-.164.147-.375-.453-.802l-.814-.58.043.574Zm-50.11.199c-.267.293-.386.709-.282.98.169.44.213.44.703-.003.287-.26.523-.634.523-.831 0-.61-.461-.68-.945-.146Zm25.007.246c-.461.304 1.34 3.557 1.94 3.507.58-.049 2.634-1.788 2.666-2.258.035-.516-.38-.423-.958.216-.716.791-1.152.253-.545-.673.606-.924.156-.943-.702-.03-.822.873-1.555.962-1.112.133.166-.31.226-.685.133-.835-.197-.32-.977-.352-1.422-.06Zm19.394.5c0 .238.125.356.278.262.153-.095.279-.29.279-.434 0-.144-.126-.262-.279-.262-.153 0-.278.195-.278.434Zm1.532-.156c.094.153.36.279.59.279.23 0 .34-.126.245-.279-.094-.153-.36-.278-.59-.278-.229 0-.34.125-.245.278Zm-48.718 1.36c-.964.977-1.24 1.42-.985 1.577.235.145.76-.243 1.553-1.15.66-.753 1.202-1.463 1.205-1.578.013-.472-.505-.136-1.773 1.15Zm51.42-.26c.252.403.432.465.699.244.562-.467.424-.787-.339-.787-.623 0-.662.059-.36.543Zm-28.19.541c-.382.106-.736.407-.787.668-.112.585.463.634.685.058.088-.23.335-.418.548-.418.213 0 .388-.125.388-.278 0-.154-.031-.266-.07-.251-.038.015-.382.115-.764.221Zm58.069.048c-.101.163-.117.364-.035.446.2.2.743-.152.743-.48 0-.357-.481-.333-.708.034Zm-104.035 1.34c0 .356.82.978 1.022.776.202-.202-.421-1.02-.777-1.02a.245.245 0 0 0-.245.244Zm44.293.312c-.36.233-.353.27.053.274.26.003.549-.12.644-.274.217-.352-.151-.352-.697 0Zm40.393.123c0 .238.125.434.278.434.154 0 .279-.118.279-.262 0-.144-.125-.34-.279-.434-.153-.095-.278.023-.278.262ZM44.62 71.917c-.801.853-.764 1.082.16.975.602-.069.785-.252.855-.853.107-.935-.214-.974-1.015-.122Zm88.676-.366c-.094.153-.54.279-.991.279-.536 0-.819.141-.819.41 0 .312.217.37.905.244 1.043-.192 2.339-1.211 1.541-1.211-.255 0-.541.125-.636.278Zm-12.3.51c.631.695.581.882-.235.882-.696 0-.933.378-.43.689.146.09.195.348.109.573-.086.225-.071.409.032.409.457 0 2.657-1.478 2.657-1.785 0-.336-1.681-1.278-2.282-1.278-.176 0-.111.222.149.51Zm-3.717.13c0 .2.145.508.322.685.244.244.236.426-.034.752-.264.317-.27.429-.026.429.277 0 1.335-.455 1.633-.703.047-.038-.218-.398-.589-.797-.727-.785-1.306-.946-1.306-.365Zm-11.704 1.99c.381.212.812.31.957.221.284-.176-.55-.578-1.232-.594-.23-.005-.106.163.275.374Zm-54.178.99c-.095.153-.04.278.122.278s.295-.125.295-.278c0-.154-.055-.279-.123-.279-.067 0-.2.126-.294.279Zm66.16.41c-.383.215-.978.322-1.323.239-.72-.175-.827.23-.199.75.466.387 1.012.19 2.358-.849.826-.638.23-.738-.836-.14Zm4.39 2.81c-.669.363-.721.483-.42.963.457.733.55.695 1.079-.434.503-1.074.44-1.125-.659-.529Zm-1.465 1.791c.095.153.227.278.295.278.068 0 .123-.125.123-.278 0-.153-.133-.278-.295-.278-.162 0-.218.125-.123.278Zm-2.182 1.02c-.353.354-.183.65.371.65.31 0 .558-.185.558-.417 0-.424-.59-.571-.929-.232Zm-6.105 1.246c-1.097.939-1.324 1.295-1.324 2.078 0 .52.134.946.296.946.738 0 3.27-1.458 3.817-2.198l.606-.82-.982-.579c-.54-.319-1.007-.575-1.036-.57-.03.006-.649.52-1.377 1.143Z" fill="#fff" fill-opacity=".7" style="fill:#fff;fill-opacity:.7"></path>
  </g>
  <defs>
    <clipPath id="a">
      <path fill="#fff" style="fill:#fff;fill-opacity:1" d="M0 0h195v98H0z"></path>
    </clipPath>
  </defs>
</svg>
