<svg width="110" height="110" viewBox="0 0 110 110" fill="none" xmlns="http://www.w3.org/2000/svg">
<circle cx="55" cy="55" r="55" fill="white" style="fill:white;fill-opacity:1;"/>
<path d="M71.125 85.1315H82.7123L69.0631 62.6024C73.0485 60.771 76.2898 57.6339 78.251 53.7097C80.2121 49.7856 80.7758 45.3095 79.8487 41.0215C78.9216 36.7335 76.5593 32.8903 73.1523 30.1275C69.7454 27.3647 65.4979 25.8476 61.1121 25.8271H28.6953L34.512 35.4279H61.1121C63.6663 35.4279 66.116 36.4428 67.9221 38.2495C69.7282 40.0562 70.7429 42.5065 70.7429 45.0615C70.7429 47.6165 69.7282 50.0669 67.9221 51.8736C66.116 53.6802 63.6663 54.6952 61.1121 54.6952H37.0284L42.8451 64.3816H58.4771L71.125 85.1315Z" fill="#020202" style="fill:#020202;fill:color(display-p3 0.0078 0.0078 0.0078);fill-opacity:1;"/>
<path d="M30.4922 73.2637H42.3496V85.1245H30.4922V73.2637Z" fill="#E70000" style="fill:#E70000;fill:color(display-p3 0.9059 0.0000 0.0000);fill-opacity:1;"/>
</svg>
